[Header]
FileType HTR
DataType HTRS
FileVersion 1
NumSegments 28
NumFrames 4
DataFrameRate 24
EulerRotationOrder ZYX
CalibrationUnits mm
RotationUnits Degrees
GlobalAxisofGravity Y
BoneLengthAxis Y
ScaleFactor 1.0
[SegmentNames&Hierarchy]
waist	GLOBAL
chest	waist
head	chest
joint2	chest
right_shoulder1	joint2
right_elbow1	right_shoulder1
right_wrist1	right_elbow1
right_hand1	right_wrist1
right_finger3	right_hand1
right_finger4	right_hand1
right_finger5	right_hand1
joint3	chest
right_shoulder2	joint3
right_elbow2	right_shoulder2
right_wrist2	right_elbow2
right_hand2	right_wrist2
right_finger6	right_hand2
right_finger7	right_hand2
right_finger8	right_hand2
Center_pelvis	waist
left_pelvs	Center_pelvis
left_leg	left_pelvs
left_knee	left_leg
left_foot	left_knee
right_pelvis	Center_pelvis
right_leg	right_pelvis
right_knee	right_leg
right_foot	right_knee
[BasePosition]
waist	0	0	0	179.9999991	0	91.33221985	1
chest	0	0	0	-2.307808268e-010	-1.984983424e-008	1.332219854	1
head	0	0	0	180	-1.481061187e-024	90	1
joint2	0	0	0	4.615476202e-010	-1.707085745e-006	90	1
right_shoulder1	0	0	0	1.916575325e-008	-1.983803253e-008	-88.02506599	1
right_elbow1	0	0	0	-180	-1.948815659e-008	-12.92899665	1
right_wrist1	0	0	0	3.256551172e-010	1.942478841e-008	1.920938916	1
right_hand1	0	0	0	136.2194085	85.17676588	-133.4832578	1
right_finger3	0	0	0	154.4596717	79.84057755	147.6247455	1
right_finger4	0	0	0	154.4596717	79.84057755	147.6247455	1
right_finger5	0	0	0	154.4596717	79.84057755	147.6247455	1
joint3	0	0	0	-180	-1.89575832e-022	90	1
right_shoulder2	0	0	0	6.774897105e-015	-7.012540931e-015	-88.02506599	1
right_elbow2	0	0	0	-180	-6.888863384e-015	-12.92899665	1
right_wrist2	0	0	0	-1.240805042e-012	-7.401196581e-011	1.920938916	1
right_hand2	0	0	0	136.2194085	85.17676588	-133.4832578	1
right_finger6	0	0	0	154.4596717	79.84057755	147.6247455	1
right_finger7	0	0	0	154.4596717	79.84057755	147.6247455	1
right_finger8	0	0	0	154.4596717	79.84057755	147.6247455	1
Center_pelvis	0	0	0	-180	-8.537716493e-007	89.87586122	1
left_pelvs	0	0	0	0	0	-1.456358634	1
left_leg	0	0	0	179.9999991	0	88.69804733	1
left_knee	0	0	0	-180	-7.863991589e-009	-2.076172838	1
left_foot	0	0	0	179.9999985	-3.055580289e-010	-90.77422016	1
right_pelvis	0	0	0	0	0	-2.39554958	1
right_leg	0	0	0	0	0	-87.75885638	1
right_knee	0	0	0	179.9999991	3.702652968e-022	-2.076172838	1
right_foot	0	0	0	180	-7.405305937e-025	-90.77422016	1
[waist]
30	0	-12.56928921	-7.580852509	1.921484709	-17.90083122	1.229965448	1.0
31	0	-13.55122757	-7.241483212	1.836464047	-15.31971741	1.290633798	1.0
32	0.003333709203	-13.41223621	-6.777679443	1.719084144	-13.80739021	1.273383498	1.0
33	0.01189831179	-13.05515289	-6.280418396	1.593141198	-12.3956461	1.229065776	1.0
[chest]
30	19.32523537	-0.4706298113	-11.37144661	14.92282963	56.9588356	7.873651505	1.0
31	19.32523537	-0.4706298113	-11.37144661	16.86778069	60.4498558	8.411104202	1.0
32	19.42648506	-0.4643394947	-11.17366791	16.64233017	59.74362183	8.298683167	1.0
33	19.68661118	-0.4481790662	-10.66555119	16.06312561	57.92923355	8.009863853	1.0
[head]
30	20.62318993	0.1433748305	1.492195129	-7.164081573	1.992369771	4.913359165	1.0
31	20.62318993	0.1433748305	1.492195129	-9.158061028	1.992369771	4.913359165	1.0
32	20.62318993	0.1433748305	1.492195129	-9.051567078	1.977241516	4.846730232	1.0
33	20.62318993	0.1433748305	1.492195129	-8.753385544	1.934882164	4.660169125	1.0
[joint2]
30	-1.657010078	17.01290512	0.01287616603	44.4968071	-14.31321335	42.96370316	1.0
31	-1.657010078	17.01290512	0.01287616603	46.1452713	-18.07286453	46.62142944	1.0
32	-1.657010078	17.01290512	0.01287616603	45.401474	-17.809412	45.94181442	1.0
33	-1.657010078	17.01290512	0.01287616603	43.31884003	-17.07174492	44.0389061	1.0
[right_shoulder1]
30	14.91590023	0.6211000085	0.9477797747	20.74621582	-49.03110123	-124.1106949	1.0
31	14.91590023	0.6211000085	0.9477797747	25.07830429	-52.07704544	-132.1434479	1.0
32	14.91590023	0.6211000085	0.9477797747	24.71273041	-51.55114746	-130.2904205	1.0
33	14.91590023	0.6211000085	0.9477797747	23.68912697	-50.07863998	-125.101944	1.0
[right_elbow1]
30	-13.64346027	1.083028078	-0.5017899871	-8.886014938	24.84589005	31.94716454	1.0
31	-13.64346027	1.083028078	-0.5017899871	-8.341485977	22.33961487	32.41069794	1.0
32	-13.64346027	1.083028078	-0.5017899871	-7.747783661	22.42985535	31.93824005	1.0
33	-13.64346027	1.083028078	-0.5017899871	-7.074885368	22.68253136	30.61535072	1.0
[right_wrist1]
30	-11.07325459	0.004849368241	0.6145500541	6.648462772	25.52287102	26.11634254	1.0
31	-11.07325459	0.004849368241	0.6145500541	7.783529758	25.47425652	28.68563652	1.0
32	-11.07325459	0.004849368241	0.6145500541	7.67006731	25.54046822	28.26747704	1.0
33	-11.07325459	0.004849368241	0.6145500541	7.352372646	25.72585869	27.09663582	1.0
[right_hand1]
30	-7.870647907	-0.6475095749	0.1588415354	13.610322	25.63029671	20.05943108	1.0
31	-7.870647907	-0.6475095749	0.1588415354	13.610322	25.63029671	20.05943108	1.0
32	-7.870647907	-0.6475095749	0.1588415354	13.610322	25.63029671	20.05943108	1.0
33	-7.870647907	-0.6475095749	0.1588415354	13.610322	25.63029671	20.05943108	1.0
[right_finger3]
30	10.07661057	3.347557783	-1.489186764	-84.28975677	13.1826582	87.76701355	1.0
31	10.07661057	3.347557783	-1.489186764	-84.28975677	13.1826582	87.76701355	1.0
32	10.07661057	3.347557783	-1.489186764	-84.28975677	13.1826582	87.76701355	1.0
33	10.07661057	3.347557783	-1.489186764	-84.28975677	13.1826582	87.76701355	1.0
[right_finger4]
30	-1.201135993	3.376283169	11.27149582	-190.2575378	16.2514534	124.4265747	1.0
31	-1.201135993	3.376283169	11.27149582	-190.2575378	16.2514534	124.4265747	1.0
32	-1.201135993	3.376283169	11.27149582	-190.2575378	16.2514534	124.4265747	1.0
33	-1.201135993	3.376283169	11.27149582	-190.2575378	16.2514534	124.4265747	1.0
[right_finger5]
30	-6.853637218	4.493112087	-5.936321735	34.39846039	4.028532028	79.4876709	1.0
31	-6.853637218	4.493112087	-5.936321735	34.39846039	4.028532028	79.4876709	1.0
32	-6.853637218	4.493112087	-5.936321735	34.39846039	4.028532028	79.4876709	1.0
33	-6.853637218	4.493112087	-5.936321735	34.39846039	4.028532028	79.4876709	1.0
[joint3]
30	-1.657010078	-17.01289368	0.01287565939	16.2335434	50.42895889	34.35328674	1.0
31	-1.657010078	-17.01289368	0.01287565939	21.9785881	53.88027573	42.54734802	1.0
32	-1.657010078	-17.01289368	0.01287565939	21.61674309	53.09484863	41.92712402	1.0
33	-1.657010078	-17.01289368	0.01287565939	20.60358238	50.89565277	40.19049454	1.0
[right_shoulder2]
30	-14.91590023	-0.6211000085	-0.9477797747	58.26189804	-15.09220028	-121.3395081	1.0
31	-14.91590023	-0.6211000085	-0.9477797747	58.49239731	-16.98131943	-123.2738876	1.0
32	-14.91590023	-0.6211000085	-0.9477797747	57.63973999	-16.733778	-121.6089859	1.0
33	-14.91590023	-0.6211000085	-0.9477797747	55.25229645	-16.04066277	-116.9472809	1.0
[right_elbow2]
30	13.06082726	-0.03707668185	1.483248353	-15.87555218	50.44172668	-2.904654503	1.0
31	13.06082726	-0.03707668185	1.483248353	-22.36880112	50.85189438	-8.877184868	1.0
32	13.06082726	-0.03707668185	1.483248353	-21.88691902	50.61541748	-8.479955673	1.0
33	13.06082726	-0.03707668185	1.483248353	-20.5376606	49.9532814	-7.367714405	1.0
[right_wrist2]
30	11.37348366	-5.659013271	-0.5602906942	-1.583117366	11.68437195	-25.42860031	1.0
31	11.37348366	-5.659013271	-0.5602906942	-1.583117366	11.68437195	-25.42860031	1.0
32	11.37348366	-5.659013271	-0.5602906942	-1.58716774	12.0035677	-25.43893433	1.0
33	11.37348366	-5.659013271	-0.5602906942	-1.598509073	12.89731216	-25.46787071	1.0
[right_hand2]
30	8.313048363	0.02588133886	-0.2132965624	18.71133041	22.36689186	29.74986458	1.0
31	8.313048363	0.02588133886	-0.2132965624	18.71133041	22.36689186	29.74986458	1.0
32	8.313048363	0.02588133886	-0.2132965624	18.71133041	22.36689186	29.74986458	1.0
33	8.313048363	0.02588133886	-0.2132965624	18.71133041	22.36689186	29.74986458	1.0
[right_finger6]
30	-10.07661057	-3.347557783	1.489186764	-83.6856308	28.25859642	89.45962524	1.0
31	-10.07661057	-3.347557783	1.489186764	-83.6856308	28.25859642	89.45962524	1.0
32	-10.07661057	-3.347557783	1.489186764	-83.6856308	28.25859642	89.45962524	1.0
33	-10.07661057	-3.347557783	1.489186764	-83.6856308	28.25859642	89.45962524	1.0
[right_finger7]
30	1.201135993	-3.376283169	-11.27149582	-196.815567	9.285179138	95.4122467	1.0
31	1.201135993	-3.376283169	-11.27149582	-196.815567	9.285179138	95.4122467	1.0
32	1.201135993	-3.376283169	-11.27149582	-196.815567	9.285179138	95.4122467	1.0
33	1.201135993	-3.376283169	-11.27149582	-196.815567	9.285179138	95.4122467	1.0
[right_finger8]
30	6.853637218	-4.493112087	5.936321735	33.30503464	-9.988982201	100.1356735	1.0
31	6.853637218	-4.493112087	5.936321735	33.30503464	-9.988982201	100.1356735	1.0
32	6.853637218	-4.493112087	5.936321735	33.30503464	-9.988982201	100.1356735	1.0
33	6.853637218	-4.493112087	5.936321735	33.30503464	-9.988982201	100.1356735	1.0
[Center_pelvis]
30	-5.616972446	-0.3766000271	2.04698658	-4.452167034	-0.116836898	2.69452858	1.0
31	-5.616972446	-0.3766000271	2.04698658	-5.931515217	0.1962950379	1.888655424	1.0
32	-5.616972446	-0.3766000271	2.04698658	-5.852235794	0.1936713904	1.552420735	1.0
33	-5.616972446	-0.3766000271	2.04698658	-5.648560524	0.1869310439	1.276913881	1.0
[left_pelvs]
30	11.08986378	-0.01586683653	-0.09214995801	-32.38427734	1.639882088	-0.1300352514	1.0
31	11.08986378	-0.01586683653	-0.09214995801	-33.53596497	1.639882088	0	1.0
32	11.08986378	-0.01586683653	-0.09214995801	-33.26222229	1.615977168	0	1.0
33	11.08986378	-0.01586683653	-0.09214995801	-32.49575806	1.549043059	0	1.0
[left_leg]
30	8.450808053e-008	-5.682914734	0.3641465604	4.558609962	-1.2793293	0.1198603064	1.0
31	8.450808053e-008	-5.682914734	0.3641465604	4.558609962	-1.2793293	0	1.0
32	8.450808053e-008	-5.682914734	0.3588383198	4.492157936	-1.111553073	0	1.0
33	8.450808053e-008	-5.682914734	0.3439751565	4.306092262	-0.6417801976	0	1.0
[left_knee]
30	-10.69747543	0.03457061574	-2.942589727e-009	-6.277534962	-57.9881897	7.216020107	1.0
31	-10.69747543	0.03457061574	-2.637622121e-009	-7.440320492	-60.26858521	8.552640915	1.0
32	-10.69747543	0.03457061574	-2.338339744e-009	-7.331861019	-59.47591019	8.427966118	1.0
33	-10.69747543	0.03457061574	-2.047019221e-009	-7.028173923	-57.25642014	8.07888031	1.0
[left_foot]
30	-14.54718971	-0.01193539705	1.933258442e-009	0	0	0	1.0
31	-14.54718971	-0.01193539705	1.933258442e-009	0	0	0	1.0
32	-14.54718971	-0.01193539705	1.933258442e-009	0	0	0	1.0
33	-14.54718971	-0.01193539705	1.933258442e-009	0	0	0	1.0
[right_pelvis]
30	-10.5868988	0.4465443194	0.2088862956	-19.21685791	0.5073854327	-0.6262574196	1.0
31	-10.5868988	0.4465443194	0.2088862956	-23.15237045	0	0	1.0
32	-10.5868988	0.4465443194	0.2088862956	-25.02545929	0	0	1.0
33	-10.5868988	0.4465443194	0.2088862956	-26.72467804	0	0	1.0
[right_leg]
30	0.09169664979	-5.593489647	0.02726310678	0	-16.45513916	0	1.0
31	0.09169664979	-5.593489647	0.02443758398	0	-17.03505707	0	1.0
32	0.09169664979	-5.593489647	0.02166473307	0	-16.48611259	0	1.0
33	0.09169664979	-5.593489647	0.01896564104	0	-14.94907475	0	1.0
[right_knee]
30	10.69750977	-0.03459574655	-2.038397705e-015	16.55610275	-57.30750656	-0.8779227734	1.0
31	10.69750977	-0.03459574655	-1.827139853e-015	15.5485239	-62.4839325	0	1.0
32	10.69750977	-0.03459574655	-1.619820492e-015	14.44375896	-61.85061264	0	1.0
33	10.69750977	-0.03459574655	-1.418015951e-015	13.19081211	-60.07732391	0	1.0
[right_foot]
30	14.54718685	0.01191107463	7.667588786e-011	-4.01039362	2.298313856	-0.8371703625	1.0
31	14.54718685	0.01191107463	6.872926533e-011	0	0	0	1.0
32	14.54718685	0.01191107463	6.093078125e-011	0	0	0	1.0
33	14.54718685	0.01191107463	5.333975969e-011	0	0	0	1.0
[EndOfFile]
